<?xml version="1.0" encoding="UTF-8"?>
<svg version="1.1" xmlns="http://www.w3.org/2000/svg" width="500" height="500">
<path d="M0 0 C165 0 330 0 500 0 C500 165 500 330 500 500 C335 500 170 500 0 500 C0 335 0 170 0 0 Z " fill="#FEFEFE" transform="translate(0,0)"/>
<path d="M0 0 C17.97738194 -0.06969407 35.95471693 -0.12310969 53.9322052 -0.15543652 C62.28102237 -0.17085092 70.62975363 -0.19183551 78.97851562 -0.22631836 C86.26233451 -0.25638813 93.54609112 -0.27561435 100.82997036 -0.28226548 C104.68035539 -0.28614825 108.53056239 -0.29515736 112.38088989 -0.31719017 C143.13586494 -0.48640535 143.13586494 -0.48640535 156 3 C157.20110916 3.30395187 157.20110916 3.30395187 158.42648315 3.61404419 C166.62475133 5.84343925 174.07754679 9.08074754 181 14 C181.62132812 14.43828125 182.24265625 14.8765625 182.8828125 15.328125 C195.72732535 25.35030095 201.92011503 41.28711903 204 57 C205.4332598 76.62004045 201.57777004 95.38804341 188.6640625 110.78515625 C177.82059055 122.34410655 163.82424949 130.00012552 148 132 C154.65614213 144.40978398 161.37189701 156.77454336 168.40063477 168.9777832 C171.76876533 174.82937888 175.08157384 180.70933731 178.3671875 186.60766602 C193.28291606 216.84330742 193.28291606 216.84330742 220.28515625 234.45703125 C224.14734304 235.22946861 228.08541681 235.56504631 232 236 C232 242.27 232 248.54 232 255 C225.97097041 255.09247766 219.94446038 255.17191769 213.9152832 255.21972656 C211.86995038 255.2396826 209.82467342 255.26685738 207.77954102 255.30175781 C192.23022288 255.56021629 178.61494187 255.29938848 166 245 C165.33613281 244.45988281 164.67226563 243.91976562 163.98828125 243.36328125 C150.83694171 231.45214662 143.80701325 212.1397445 135.84005737 196.5438385 C133.181163 191.34243302 130.48200419 186.16341418 127.75 181 C125.10717975 176.0025856 122.4757641 170.99977727 119.8671875 165.984375 C119.05942871 164.43169922 119.05942871 164.43169922 118.23535156 162.84765625 C117.19187936 160.8404435 116.14949271 158.8326659 115.10839844 156.82421875 C113.0262743 152.82045875 110.93530846 148.84421888 108.6484375 144.953125 C107 142 107 142 107 140 C94.79 140 82.58 140 70 140 C70 171.68 70 203.36 70 236 C78.91 236 87.82 236 97 236 C97 242.6 97 249.2 97 256 C64.99 256 32.98 256 0 256 C0 249.4 0 242.8 0 236 C8.58 236 17.16 236 26 236 C26 164.72 26 93.44 26 20 C17.42 20 8.84 20 0 20 C0 13.4 0 6.8 0 0 Z " fill="#024CAD" transform="translate(251,150)"/>
<path d="M0 0 C2.72439535 2.59466224 5.17999779 5.3606415 7.55859375 8.2734375 C8.89692485 9.99565497 8.89692485 9.99565497 10.96875 10.875 C10.96875 4.275 10.96875 -2.325 10.96875 -9.125 C21.85875 -9.125 32.74875 -9.125 43.96875 -9.125 C43.96875 14.965 43.96875 39.055 43.96875 63.875 C33.07875 63.875 22.18875 63.875 10.96875 63.875 C10.71875 52 10.71875 52 10.67089844 48.32080078 C10.36112936 38.30221664 7.84498505 28.54709785 0.39453125 21.35546875 C-11.1581513 11.78878194 -24.85365089 10.69537992 -39.21875 10.6875 C-40.9522168 10.66913086 -40.9522168 10.66913086 -42.72070312 10.65039062 C-56.50511793 10.62717151 -68.26876344 12.10346918 -78.96875 21.4375 C-79.649375 22.241875 -80.33 23.04625 -81.03125 23.875 C-81.711875 24.6175 -82.3925 25.36 -83.09375 26.125 C-89.9340947 35.83387635 -91.08299971 46.30848497 -90.03125 57.875 C-87.59684354 67.99103098 -81.41272296 76.20583402 -72.71875 81.8125 C-60.80309056 88.6139932 -48.16474227 91.68080489 -34.89306641 94.62719727 C-8.3484145 100.54887407 21.77026977 109.18824577 37.78125 133.1875 C44.99106087 145.36255798 48.36944082 157.21121697 48.21875 171.3125 C48.21198242 172.23409912 48.20521484 173.15569824 48.19824219 174.10522461 C48.10038816 180.54140266 47.70140032 186.64735971 45.96875 192.875 C45.71222656 193.81988281 45.45570313 194.76476562 45.19140625 195.73828125 C39.33217993 215.1265366 27.59974114 229.6078171 9.99609375 239.5546875 C-12.67184408 251.31276622 -40.82056033 255.55351144 -65.6171875 248.140625 C-77.42598242 243.76299393 -88.42083077 237.99252325 -95.03125 226.875 C-95.03125 226.215 -95.03125 225.555 -95.03125 224.875 C-96.02125 224.875 -97.01125 224.875 -98.03125 224.875 C-98.03125 232.135 -98.03125 239.395 -98.03125 246.875 C-108.92125 246.875 -119.81125 246.875 -131.03125 246.875 C-131.03125 221.795 -131.03125 196.715 -131.03125 170.875 C-120.14125 170.875 -109.25125 170.875 -98.03125 170.875 C-97.94875 174.401875 -97.86625 177.92875 -97.78125 181.5625 C-97.32133712 193.93928603 -96.17392095 205.6265111 -87.03125 214.875 C-74.08704924 226.84280631 -57.27750812 227.48316336 -40.56933594 226.97998047 C-25.29013687 226.34800128 -10.49607846 223.90533249 0.53125 212.3125 C9.68609139 201.43224504 10.97586801 188.64840263 9.96875 174.875 C7.66651122 164.31101292 2.02393267 156.41639178 -6.9765625 150.52734375 C-21.62566159 142.60334258 -39.08399435 139.54233546 -55.125 135.6328125 C-75.59278285 130.56955548 -93.8341273 122.99128694 -109.03125 107.875 C-109.65515625 107.28589844 -110.2790625 106.69679688 -110.921875 106.08984375 C-125.87335481 90.7679444 -127.61411886 70.06371682 -127.37109375 49.8125 C-127.10917774 41.70071133 -125.64808316 35.2101591 -122.03125 27.875 C-121.5465625 26.83988281 -121.061875 25.80476563 -120.5625 24.73828125 C-113.71675053 11.63404022 -102.88612877 2.75319487 -90.03125 -4.125 C-89.28617188 -4.53234375 -88.54109375 -4.9396875 -87.7734375 -5.359375 C-83.086737 -7.67599502 -78.14034114 -9.00932071 -73.09375 -10.3125 C-72.12731567 -10.56338379 -72.12731567 -10.56338379 -71.14135742 -10.81933594 C-48.09022143 -16.41833479 -18.85604294 -15.7602747 0 0 Z " fill="#555555" transform="translate(163.03125,159.125)"/>
<path d="M0 0 C9.343125 -0.0825 18.68625 -0.165 28.3125 -0.25 C32.70429565 -0.30462402 32.70429565 -0.30462402 37.18481445 -0.36035156 C39.53596262 -0.37204685 41.88711896 -0.38223668 44.23828125 -0.390625 C46.03235413 -0.4213208 46.03235413 -0.4213208 47.8626709 -0.45263672 C59.26127906 -0.45732124 69.2012736 2.53909165 78 10 C88.35796505 21.12857952 89.348311 34.36438339 89.3125 48.875 C89.32861328 50.17308594 89.34472656 51.47117188 89.36132812 52.80859375 C89.36790784 65.84958106 87.05291182 77.0825377 78.18359375 87.0390625 C73.38527329 91.59504354 68.2332805 93.94069241 62 96 C61.01 96.33 60.02 96.66 59 97 C57.08281152 97.08865176 55.16264087 97.11761757 53.2434082 97.11352539 C51.44716003 97.11334412 51.44716003 97.11334412 49.61462402 97.11315918 C48.35605591 97.10804321 47.09748779 97.10292725 45.80078125 97.09765625 C44.64396851 97.09664917 43.48715576 97.09564209 42.29528809 97.09460449 C37.967682 97.08936646 33.64009002 97.07540522 29.3125 97.0625 C19.639375 97.041875 9.96625 97.02125 0 97 C0 64.99 0 32.98 0 0 Z " fill="#FEFEFE" transform="translate(321,172)"/>
</svg>
